<svg width="24" height="24" viewBox="0 0 24 24" fill="none" xmlns="http://www.w3.org/2000/svg">
<path fill-rule="evenodd" clip-rule="evenodd" d="M17.5 3H3V15.75C3 18.3734 5.12665 20.5 7.75 20.5H16.75H17.5H18.75C20.2688 20.5 21.5 19.2688 21.5 17.75V7H17.5V3ZM17.5 8.5V17.75C17.5 18.4404 18.0596 19 18.75 19C19.4404 19 20 18.4404 20 17.75V8.5H17.5ZM16 7V4.5H4.5V15.75C4.5 17.5449 5.95507 19 7.75 19H16V17.75V7ZM8.25 8.75C8.25 8.47386 8.47386 8.25 8.75 8.25H11.75C12.0261 8.25 12.25 8.47386 12.25 8.75C12.25 9.02614 12.0261 9.25 11.75 9.25H8.75C8.47386 9.25 8.25 9.02614 8.25 8.75ZM8.75 10.75C7.64543 10.75 6.75 9.85457 6.75 8.75C6.75 7.64543 7.64543 6.75 8.75 6.75H11.75C12.8546 6.75 13.75 7.64543 13.75 8.75C13.75 9.85457 12.8546 10.75 11.75 10.75H8.75ZM7.5 12.75C7.08579 12.75 6.75 13.0858 6.75 13.5C6.75 13.9142 7.08579 14.25 7.5 14.25H13C13.4142 14.25 13.75 13.9142 13.75 13.5C13.75 13.0858 13.4142 12.75 13 12.75H7.5ZM7.5 16.75C7.08579 16.75 6.75 16.4142 6.75 16C6.75 15.5858 7.08579 15.25 7.5 15.25H11C11.4142 15.25 11.75 15.5858 11.75 16C11.75 16.4142 11.4142 16.75 11 16.75H7.5Z" fill="#06070A"/>
</svg>
