<svg width="24" height="24" viewBox="0 0 24 24" fill="none" xmlns="http://www.w3.org/2000/svg">
<path fill-rule="evenodd" clip-rule="evenodd" d="M12 3.75C7.44365 3.75 3.75 7.44365 3.75 12C3.75 13.5039 4.15173 14.9118 4.85324 16.1245L4.99004 16.3609L4.4242 19.5758L7.63906 19.01L7.87554 19.1468C9.08825 19.8483 10.4961 20.25 12 20.25C16.5563 20.25 20.25 16.5563 20.25 12C20.25 7.44365 16.5563 3.75 12 3.75ZM2.25 12C2.25 6.61522 6.61522 2.25 12 2.25C17.3848 2.25 21.75 6.61522 21.75 12C21.75 17.3848 17.3848 21.75 12 21.75C10.3245 21.75 8.74576 21.3267 7.36702 20.5809L2.5758 21.4242L3.4191 16.633C2.67326 15.2542 2.25 13.6755 2.25 12ZM8 10.75V9.25H16V10.75H8ZM8 14.75H13V13.25H8V14.75Z" fill="#06070A"/>
</svg>
