<svg width="24" height="24" viewBox="0 0 24 24" fill="none" xmlns="http://www.w3.org/2000/svg">
<path fill-rule="evenodd" clip-rule="evenodd" d="M6 2.25C3.92893 2.25 2.25 3.92893 2.25 6V18C2.25 20.0711 3.92893 21.75 6 21.75H13H14H18C20.0711 21.75 21.75 20.0711 21.75 18V8C21.75 5.92893 20.0711 4.25 18 4.25H17.3175C16.6887 3.06055 15.439 2.25 14 2.25H6ZM17.7418 5.75C17.7472 5.83263 17.75 5.91599 17.75 6V18C17.75 18.8442 17.471 19.6233 17.0003 20.25H18C19.2426 20.25 20.25 19.2426 20.25 18V8C20.25 6.75736 19.2426 5.75 18 5.75H17.7418ZM14 20.25C15.2426 20.25 16.25 19.2426 16.25 18V6C16.25 4.75736 15.2426 3.75 14 3.75H6C4.75736 3.75 3.75 4.75736 3.75 6V18C3.75 19.2426 4.75736 20.25 6 20.25H13H14ZM6.25 7.25H13.75V8.75H6.25V7.25ZM13.75 11.25H6.25V12.75H13.75V11.25Z" fill="#06070A"/>
</svg>
