<svg width="35" height="40" viewBox="0 0 35 40" fill="none" xmlns="http://www.w3.org/2000/svg">
<path fill-rule="evenodd" clip-rule="evenodd" d="M2.66583 20C2.66583 10.4271 10.4238 2.66667 19.9937 2.66667H34.6558V0H19.9937C8.95149 0 0 8.9543 0 20V29.3239C0.75144 27.9187 1.6466 26.6019 2.66583 25.3933V20ZM7.99749 20C7.99749 13.3726 13.3684 8 19.9937 8H34.6558V5.33333H19.9937C11.8961 5.33333 5.33166 11.8998 5.33166 20V22.7174C6.16998 22.0051 7.0608 21.3526 7.99749 20.7668V20ZM19.9937 13.3333C16.9145 13.3333 14.3231 15.4221 13.5583 18.2605C12.5715 18.5523 11.6128 18.9096 10.6872 19.3272C11.0319 14.4866 15.0668 10.6667 19.9937 10.6667H34.6558V13.3333H19.9937ZM2.66583 40C2.66583 30.4271 10.4238 22.6667 19.9937 22.6667H34.6558V20H19.9937C15.4927 20 11.3391 21.4878 7.99749 23.9985L7.99554 24C3.14038 27.6489 0 33.4576 0 40H2.66583ZM19.9937 28C13.3684 28 7.99749 33.3726 7.99749 40H5.33166C5.33166 31.8998 11.8961 25.3333 19.9937 25.3333H34.6558V28H19.9937ZM19.9937 33.3333C16.313 33.3333 13.3291 36.3181 13.3291 40H10.6633C10.6633 34.8453 14.8407 30.6667 19.9937 30.6667H34.6558V33.3333H19.9937Z" fill="black"/>
</svg>
