<svg width="24" height="24" viewBox="0 0 24 24" fill="none" xmlns="http://www.w3.org/2000/svg">
<path fill-rule="evenodd" clip-rule="evenodd" d="M4.21489 5.68975C3.85256 6.02288 3.75 6.29753 3.75 6.5C3.75 6.70247 3.85256 6.97712 4.21489 7.31025C4.57786 7.64398 5.14448 7.97899 5.90787 8.27587C7.4299 8.86777 9.58354 9.25 12 9.25C14.4165 9.25 16.5701 8.86777 18.0921 8.27587C18.8555 7.97899 19.4221 7.64398 19.7851 7.31025C20.1474 6.97712 20.25 6.70247 20.25 6.5C20.25 6.29753 20.1474 6.02288 19.7851 5.68975C19.4221 5.35602 18.8555 5.02101 18.0921 4.72413C16.5701 4.13223 14.4165 3.75 12 3.75C9.58354 3.75 7.4299 4.13223 5.90787 4.72413C5.14448 5.02101 4.57786 5.35602 4.21489 5.68975ZM5.3642 3.32612C7.09954 2.65127 9.4459 2.25 12 2.25C14.5541 2.25 16.9005 2.65127 18.6358 3.32612C19.5011 3.66262 20.2525 4.0818 20.8004 4.58554C21.3489 5.08987 21.75 5.73597 21.75 6.5C21.75 7.26403 21.3489 7.91013 20.8004 8.41446C20.388 8.79358 19.8604 9.1248 19.2557 9.40892C19.6245 9.55936 19.9603 9.72362 20.2565 9.90117C21.0325 10.3663 21.75 11.0578 21.75 12.0004C21.75 12.7429 21.2979 13.3309 20.757 13.7572C20.3528 14.0757 19.841 14.3531 19.257 14.5914C19.609 14.7569 19.9312 14.9366 20.2182 15.1299C21.063 15.6988 21.75 16.4928 21.75 17.4998C21.75 18.2638 21.3489 18.9099 20.8004 19.4142C20.2525 19.918 19.5011 20.3371 18.6358 20.6736C16.9005 21.3485 14.5541 21.7498 12 21.7498C9.4459 21.7498 7.09954 21.3485 5.3642 20.6736C4.49892 20.3371 3.74752 19.918 3.19964 19.4142C2.65112 18.9099 2.25 18.2638 2.25 17.4998C2.25 16.4928 2.93703 15.6988 3.78179 15.1299C4.06879 14.9366 4.39099 14.7569 4.74302 14.5914C4.15904 14.3531 3.64717 14.0757 3.24303 13.7572C2.70213 13.3309 2.25 12.7429 2.25 12.0004C2.25 11.0578 2.96751 10.3663 3.7435 9.90117C4.03972 9.72362 4.37546 9.55936 4.74426 9.40892C4.13959 9.1248 3.61198 8.79358 3.19964 8.41446C2.65112 7.91013 2.25 7.26403 2.25 6.5C2.25 5.73597 2.65112 5.08987 3.19964 4.58554C3.74752 4.0818 4.49892 3.66262 5.3642 3.32612ZM7.2168 15.3077C6.10969 15.5935 5.22523 15.9663 4.61965 16.3741C3.93699 16.8338 3.75 17.2336 3.75 17.4998C3.75 17.7022 3.85256 17.9769 4.21489 18.31C4.57786 18.6437 5.14448 18.9787 5.90787 19.2756C7.4299 19.8675 9.58354 20.2498 12 20.2498C14.4165 20.2498 16.5701 19.8675 18.0921 19.2756C18.8555 18.9787 19.4221 18.6437 19.7851 18.31C20.1474 17.9769 20.25 17.7022 20.25 17.4998C20.25 17.2336 20.063 16.8338 19.3804 16.3741C18.7748 15.9663 17.8903 15.5935 16.7832 15.3077C15.3708 15.5912 13.7341 15.7504 12 15.7504C10.2659 15.7504 8.62916 15.5912 7.2168 15.3077ZM12 10.75C13.7413 10.75 15.3861 10.5635 16.8065 10.2309C17.9638 10.4868 18.877 10.8231 19.4853 11.1878C20.148 11.585 20.25 11.8863 20.25 12.0004C20.25 12.0863 20.1985 12.2875 19.8285 12.5791C19.467 12.864 18.8975 13.1533 18.1268 13.4102C16.5933 13.9214 14.4271 14.2504 12 14.2504C9.5729 14.2504 7.4067 13.9214 5.87321 13.4102C5.10255 13.1533 4.53298 12.864 4.17149 12.5791C3.80155 12.2875 3.75 12.0863 3.75 12.0004C3.75 11.8863 3.85197 11.585 4.51466 11.1878C5.12302 10.8231 6.03619 10.4868 7.19348 10.2309C8.61388 10.5635 10.2587 10.75 12 10.75Z" fill="#06070A"/>
</svg>
