<svg width="24" height="24" viewBox="0 0 24 24" fill="none" xmlns="http://www.w3.org/2000/svg">
<path fill-rule="evenodd" clip-rule="evenodd" d="M18 2.25C17.0335 2.25 16.25 3.0335 16.25 4V20C16.25 20.9665 17.0335 21.75 18 21.75H20C20.9665 21.75 21.75 20.9665 21.75 20V4C21.75 3.0335 20.9665 2.25 20 2.25H18ZM17.75 4C17.75 3.86193 17.8619 3.75 18 3.75H20C20.1381 3.75 20.25 3.86193 20.25 4V20C20.25 20.1381 20.1381 20.25 20 20.25H18C17.8619 20.25 17.75 20.1381 17.75 20V4ZM2.25 10C2.25 9.0335 3.0335 8.25 4 8.25H6C6.9665 8.25 7.75 9.0335 7.75 10V20C7.75 20.9665 6.9665 21.75 6 21.75H4C3.0335 21.75 2.25 20.9665 2.25 20V10ZM4 9.75C3.86193 9.75 3.75 9.86193 3.75 10V20C3.75 20.1381 3.86193 20.25 4 20.25H6C6.13807 20.25 6.25 20.1381 6.25 20V10C6.25 9.86193 6.13807 9.75 6 9.75H4ZM9.25 14C9.25 13.0335 10.0335 12.25 11 12.25H13C13.9665 12.25 14.75 13.0335 14.75 14V20C14.75 20.9665 13.9665 21.75 13 21.75H11C10.0335 21.75 9.25 20.9665 9.25 20V14ZM11 13.75C10.8619 13.75 10.75 13.8619 10.75 14V20C10.75 20.1381 10.8619 20.25 11 20.25H13C13.1381 20.25 13.25 20.1381 13.25 20V14C13.25 13.8619 13.1381 13.75 13 13.75H11Z" fill="#06070A"/>
</svg>
