<svg width="24" height="24" viewBox="0 0 24 24" fill="none" xmlns="http://www.w3.org/2000/svg">
<path d="M22.0832 3.75922C22.0832 3.75922 20.2333 4.85188 19.2048 5.16172C18.6528 4.52694 17.9191 4.07702 17.103 3.87282C16.2868 3.66861 15.4277 3.71998 14.6417 4.01997C13.8558 4.31995 13.1809 4.85409 12.7084 5.55012C12.2359 6.24616 11.9886 7.07053 11.9998 7.91172V8.82838C10.3889 8.87016 8.79267 8.51288 7.35326 7.78838C5.91385 7.06387 4.67596 5.99463 3.74984 4.67588C3.74984 4.67588 0.0831699 12.9259 8.33317 16.5926C6.44532 17.874 4.1964 18.5166 1.9165 18.4259C10.1665 23.0092 20.2498 18.4259 20.2498 7.88422C20.2498 7.62938 20.2242 7.37455 20.1765 7.12338C21.1115 6.20122 22.0832 3.75922 22.0832 3.75922Z" stroke="#06070A" stroke-width="1.375" stroke-linecap="round" stroke-linejoin="round"/>
</svg>
