<svg width="24" height="24" viewBox="0 0 24 24" fill="none" xmlns="http://www.w3.org/2000/svg">
<path fill-rule="evenodd" clip-rule="evenodd" d="M3.75 7C3.75 5.20507 5.20507 3.75 7 3.75H16.75V2.25H7C4.37665 2.25 2.25 4.37665 2.25 7V17C2.25 19.6234 4.37665 21.75 7 21.75H17C19.6234 21.75 21.75 19.6234 21.75 17V10.2H20.25V17C20.25 18.7949 18.7949 20.25 17 20.25H7C5.20507 20.25 3.75 18.7949 3.75 17V7ZM19.4697 5.46973L12.0001 12.9394L8.53039 9.46973L7.46973 10.5304L12.0001 15.0607L20.5304 6.53039L19.4697 5.46973Z" fill="#06070A"/>
</svg>
